<svg xmlns='http://www.w3.org/2000/svg'  width='800' height='700' viewBox='0 0 800 700'>

    <defs>
        <radialGradient id="background">
            <stop offset='0' stop-color='yellow' />
            <stop offset='1' stop-color='#ff5100'/>
        </radialGradient>

        <pattern id="background_block" x="0" y="0" width="200" height="200" patternUnits="userSpaceOnUse">
            <rect x="100" y="0" width="100" height="100" fill='#ffd500'/>
            <rect x="0" y="100" width="100" height="100" fill='#ffd500'/>
        </pattern>

        <linearGradient id="a" gradientUnits="objectBoundingBox" gradientTransform="rotate(90)">
            <stop offset='0.25' stop-color='#000' stop-opacity='0.8'/>
            <stop offset='0.7' stop-color='#000' stop-opacity='0'/>
        </linearGradient>
        <linearGradient id="b" gradientUnits="objectBoundingBox">
            <stop offset='0.25' stop-color='#000' stop-opacity='0.8'/>
            <stop offset='0.7' stop-color='#000' stop-opacity='0'/>
        </linearGradient>
        <linearGradient id="c" gradientUnits="objectBoundingBox" gradientTransform="rotate(90)">
            <stop offset='0.2' stop-color='#000' stop-opacity='0.6'/>
            <stop offset='0.8' stop-color='#000' stop-opacity='0'/>
        </linearGradient>
        <linearGradient id="d" gradientUnits="objectBoundingBox">
            <stop offset='0.2' stop-color='#000' stop-opacity='0.6'/>
            <stop offset='0.8' stop-color='#000' stop-opacity='0'/>
        </linearGradient>
        <linearGradient id="e" gradientUnits="objectBoundingBox">x
            <stop offset='0.1' stop-color='#000' stop-opacity='0'/>
            <stop offset='0.9' stop-color='#000' stop-opacity='0.4'/>
            
        </linearGradient>
    </defs>

    <filter id="canvas">
        <feTurbulence
            type="turbulence"
            baseFrequency="0.1 0.66"
            numOctaves="3"
            Seed = "20"
            result="n" />
        <feBlend in="n" result="noise" mode="multiply" />
        <feDiffuseLighting in="n" result="light" lighting-color='#ff8000'>
            <feDistantLight azimuth="45" elevation="60" filtername="feDistantLight"/>
        </feDiffuseLighting>
    </filter>


    <rect fill='#ff8000' width='800' height='700' filter="url(#canvas)"/>
    <circle cx="400" cy="700" r="810" fill="url(#background)" fill-opacity='0.4'/>
    <rect x="0" y="0" width="800" height="800" fill="url(#background_block)" fill-opacity='0.4'/>


    <g fill-opacity='0.6'> 
        <path fill='url(#a)' d="M 100,0 100,30 200,30 200,0" />
        <path fill='url(#a)' d="M 100,500 100,530 200,530 200,500" />
        <path fill='url(#a)' d="M 200,200 300,200 300,230 200,230" /> 
        <path fill='url(#a)' d="M 200,600 200,630 300,630 300,600" />
        <path fill='url(#a)' d="M 300,0 300,30 400,30 400,0" />
        <path fill='url(#a)' d="M 600,0 600,30 500,30 500,0" />
        <path fill='url(#a)' d="M 600,100 600,130 700,130 700,100" />
        <path fill='url(#a)' d="M 500,300 500,330 600,330 600,300" />
        <path fill='url(#a)' d="M 700,200 700,230 800,230 800,200" />

        <path fill='url(#b)' d="M 0,100 0,200 30,200 30,100" />
        <path fill='url(#b)' d="M 100,0 100,100 130,100 130,0" />
        <path fill='url(#b)' d="M 100,500 100,600 130,600 130,500" />
        <path fill='url(#b)' d="M 200,200 200,300 230,300 230,200" />
        <path fill='url(#b)' d="M 200,300 200,400 230,400 230,300" />
        <path fill='url(#b)' d="M 200,400 200,500 230,500 230,400" />
        <path fill='url(#b)' d="M 200,600 200,700 230,700 230,600" />
        <path fill='url(#b)' d="M 300,100 300,200 330,200 330,100" />
        <path fill='url(#b)' d="M 400,300 400,400 430,400 430,300" />
        <path fill='url(#b)' d="M 400,400 400,500 430,500 430,400" />
        <path fill='url(#b)' d="M 500,100 500,00 530,00 530,100" />
        <path fill='url(#b)' d="M 500,300 500,400 530,400 530,300" />
        <path fill='url(#b)' d="M 500,400 500,500 530,500 530,400" />
        <path fill='url(#b)' d="M 600,200 630,200 630,100 600,100" />
        <path fill='url(#b)' d="M 700,200 730,200 730,300 700,300" />
        
        <path fill='url(#c)' d="M 0,100 0,115 100,115 100,100" />
        <path fill='url(#c)' d="M 0,300 0,315 100,315 100,300" />
        <path fill='url(#c)' d="M 100,300 100,315 200,315 200,300" />
        <path fill='url(#c)' d="M 300,200 300,215 400,215 400,200" />
        <path fill='url(#c)' d="M 400,200 400,215 500,215 500,200" />
        <path fill='url(#c)' d="M 400,600 400,615 500,615 500,600" />
        <path fill='url(#c)' d="M 500,500 500,515 600,515 600,500" />
        <path fill='url(#c)' d="M 700,500 700,515 800,515 800,500" />

        <path fill='url(#d)' d="M 0,400 0,500 15,500 15,400" />
        <path fill='url(#d)' d="M 0,600 0,700 15,700 15,600" />
        <path fill='url(#d)' d="M 300,200 300,300 315,300 315,200" />
        <path fill='url(#d)' d="M 300,300 300,400 315,400 315,300" />
        <path fill='url(#d)' d="M 400,200 400,300 415,300 415,200" />
        <path fill='url(#d)' d="M 500,500 500,600 515,600 515,500" />
        <path fill='url(#d)' d="M 600,400 630,400 630,500 600,500" />

        <path fill='url(#e)' d="M 90,100 100,100 100,200 90,200" />
        <path fill='url(#e)' d="M 190,100 200,100 200,0 190,0" />
        <path fill='url(#e)' d="M 190,500 200,500 200,600 190,600" />
        <path fill='url(#e)' d="M 290,700 300,700 300,600 290,600" />
        <path fill='url(#e)' d="M 290,300 300,300 300,400 290,400" />
        <path fill='url(#e)' d="M 290,400 300,400 300,500 290,500" />
        <path fill='url(#e)' d="M 390,100 400,100 400,200 390,200" />
        <path fill='url(#e)' d="M 390,200 400,200 400,300 390,300" />
        <path fill='url(#e)' d="M 590,400 600,400 600,300 590,300" />
        <path fill='url(#e)' d="M 590,600 600,600 600,700 590,700" />
        <path fill='url(#e)' d="M 690,100 700,100 700,200 690,200" />
        <path fill='url(#e)' d="M 690,400 700,400 700,500 690,500" />
        <path fill='url(#e)' d="M 790,200 800,200 800,300 790,300" />

    </g>
</svg>
